HIERARCHY
ROOT Hips
{
	OFFSET 0.000000 89.005402 0.000000
	CHANNELS 6 Xposition Yposition Zposition Xrotation Yrotation Zrotation
	JOINT Spine
	{
		OFFSET 0.116900 10.681000 0.373400
		CHANNELS 3 Xrotation Yrotation Zrotation
		JOINT Spine1
		{
			OFFSET 0.000000 13.840401 0.053500
			CHANNELS 3 Xrotation Yrotation Zrotation
			JOINT Spine2
			{
				OFFSET 0.000000 14.712700 -0.366200
				CHANNELS 3 Xrotation Yrotation Zrotation
				JOINT Neck
				{
					OFFSET 0.000000 35.415497 -3.314200
					CHANNELS 3 Xrotation Yrotation Zrotation
					JOINT Head
					{
						OFFSET 0.000000 16.899200 1.218300
						CHANNELS 3 Xrotation Yrotation Zrotation
						JOINT HeadTop_End
						{
							OFFSET 0.000000 22.206207 2.192500
							CHANNELS 3 Xrotation Yrotation Zrotation
							End Site
							{
								OFFSET 0.000000 22.314178 0.000000
							}
						}
					}
				}
				JOINT LeftShoulder
				{
					OFFSET 12.896400 26.716293 -4.548400
					CHANNELS 3 Xrotation Yrotation Zrotation
					JOINT LeftArm
					{
						OFFSET 19.027000 -4.857010 -1.718400
						CHANNELS 3 Xrotation Yrotation Zrotation
						JOINT LeftForeArm
						{
							OFFSET 24.179897 0.000000 0.000000
							CHANNELS 3 Xrotation Yrotation Zrotation
							JOINT LeftHand
							{
								OFFSET 27.156403 0.000000 0.000000
								CHANNELS 3 Xrotation Yrotation Zrotation
								JOINT LeftHandIndex1
								{
									OFFSET 16.441200 0.000000 0.000000
									CHANNELS 3 Xrotation Yrotation Zrotation
									JOINT LeftHandIndex2
									{
										OFFSET 4.821899 0.000000 0.000000
										CHANNELS 3 Xrotation Yrotation Zrotation
										JOINT LeftHandIndex3
										{
											OFFSET 6.386497 0.000000 0.000000
											CHANNELS 3 Xrotation Yrotation Zrotation
											JOINT LeftHandIndex4
											{
												OFFSET 5.188988 0.000000 0.000000
												CHANNELS 3 Xrotation Yrotation Zrotation
												End Site
												{
													OFFSET -0.178703 5.185913 0.000177
												}
											}
										}
									}
								}
								JOINT LeftHandThumb1
								{
									OFFSET 6.534897 -5.032593 5.900300
									CHANNELS 3 Xrotation Yrotation Zrotation
									JOINT LeftHandThumb2
									{
										OFFSET 3.818176 -2.204422 2.204423
										CHANNELS 3 Xrotation Yrotation Zrotation
										JOINT LeftHandThumb3
										{
											OFFSET 3.252098 -1.877594 1.877601
											CHANNELS 3 Xrotation Yrotation Zrotation
											JOINT LeftHandThumb4
											{
												OFFSET 5.251778 -3.032120 3.032117
												CHANNELS 3 Xrotation Yrotation Zrotation
												End Site
												{
													OFFSET 0.000023 6.780014 0.000000
												}
											}
										}
									}
								}
							}
						}
					}
				}
				JOINT RightShoulder
				{
					OFFSET -12.896300 26.716293 -4.548400
					CHANNELS 3 Xrotation Yrotation Zrotation
					JOINT RightArm
					{
						OFFSET -19.027000 -4.857010 -1.718400
						CHANNELS 3 Xrotation Yrotation Zrotation
						JOINT RightForeArm
						{
							OFFSET -24.179897 0.000000 0.000000
							CHANNELS 3 Xrotation Yrotation Zrotation
							JOINT RightHand
							{
								OFFSET -27.156403 0.000000 0.000000
								CHANNELS 3 Xrotation Yrotation Zrotation
								JOINT RightHandThumb1
								{
									OFFSET -6.591202 -4.852203 5.988100
									CHANNELS 3 Xrotation Yrotation Zrotation
									JOINT RightHandThumb2
									{
										OFFSET -3.818176 -2.204422 2.204423
										CHANNELS 3 Xrotation Yrotation Zrotation
										JOINT RightHandThumb3
										{
											OFFSET -3.252098 -1.877594 1.877601
											CHANNELS 3 Xrotation Yrotation Zrotation
											JOINT RightHandThumb4
											{
												OFFSET -5.251778 -3.032120 3.032117
												CHANNELS 3 Xrotation Yrotation Zrotation
												End Site
												{
													OFFSET -0.000023 6.780014 0.000000
												}
											}
										}
									}
								}
								JOINT RightHandIndex1
								{
									OFFSET -16.029404 0.000000 0.000000
									CHANNELS 3 Xrotation Yrotation Zrotation
									JOINT RightHandIndex2
									{
										OFFSET -5.213303 0.000000 0.000000
										CHANNELS 3 Xrotation Yrotation Zrotation
										JOINT RightHandIndex3
										{
											OFFSET -6.386528 0.000000 0.000000
											CHANNELS 3 Xrotation Yrotation Zrotation
											JOINT RightHandIndex4
											{
												OFFSET -5.189026 0.000000 0.000000
												CHANNELS 3 Xrotation Yrotation Zrotation
												End Site
												{
													OFFSET 0.236702 5.183624 0.001972
												}
											}
										}
									}
								}
							}
						}
					}
				}
			}
		}
	}
	JOINT LeftUpLeg
	{
		OFFSET 14.073000 -7.904099 -1.463000
		CHANNELS 3 Xrotation Yrotation Zrotation
		JOINT LeftLeg
		{
			OFFSET -0.109806 -34.073280 4.093200
			CHANNELS 3 Xrotation Yrotation Zrotation
			JOINT LeftFoot
			{
				OFFSET 0.109806 -29.899420 -6.319000
				CHANNELS 3 Xrotation Yrotation Zrotation
				JOINT LeftToeBase
				{
					OFFSET 1.551100 -14.988700 20.535801
					CHANNELS 3 Xrotation Yrotation Zrotation
					JOINT LeftToe_End
					{
						OFFSET 0.221200 0.570800 13.248301
						CHANNELS 3 Xrotation Yrotation Zrotation
						End Site
						{
							OFFSET 0.000000 13.262435 0.000000
						}
					}
				}
			}
		}
	}
	JOINT RightUpLeg
	{
		OFFSET -13.839300 -7.904099 -1.463000
		CHANNELS 3 Xrotation Yrotation Zrotation
		JOINT RightLeg
		{
			OFFSET 0.109694 -34.073219 4.093300
			CHANNELS 3 Xrotation Yrotation Zrotation
			JOINT RightFoot
			{
				OFFSET -0.109694 -29.899384 -6.319200
				CHANNELS 3 Xrotation Yrotation Zrotation
				JOINT RightToeBase
				{
					OFFSET -1.551100 -14.988700 20.535801
					CHANNELS 3 Xrotation Yrotation Zrotation
					JOINT RightToe_End
					{
						OFFSET -0.221200 0.570900 13.248299
						CHANNELS 3 Xrotation Yrotation Zrotation
						End Site
						{
							OFFSET 0.000000 13.262440 0.000000
						}
					}
				}
			}
		}
	}
}
MOTION
Frames: 5
Frame Time: 0.033333
7.706950 30.446167 44.385559 21.561942 -19.458369 9.177903 19.099381 0.087460 3.747026 3.807313 -0.195629 0.501892 3.805982 -0.187876 0.512402 6.871587 -0.725203 -0.062491 37.569623 -13.237859 18.552894 -0.000000 0.000000 -0.000003 0.146914 -10.631683 -16.668390 12.591769 -24.832293 -59.345089 -0.000181 -81.641893 -0.000099 40.665754 -27.894050 -6.840789 -0.375326 -2.532318 -5.160758 0.834391 3.015156 -30.930614 0.097230 1.064086 -10.442523 -0.000000 -0.000001 -0.000004 -2.340855 -7.419005 5.277131 5.850586 12.389270 2.275367 -10.374762 -8.260041 12.843043 0.000001 0.000002 -0.000001 0.137794 13.606222 14.710291 18.810331 18.136072 50.923749 0.000354 83.293023 -0.000377 49.718327 26.375785 4.803775 -1.739456 -1.873935 -22.217246 7.786680 -15.405715 -4.492228 -8.389261 2.112093 -14.768614 0.000001 0.000002 0.000001 0.053854 -4.361107 0.076048 0.351306 -1.776115 22.374199 0.662399 -2.395901 30.905465 -0.000001 0.000000 0.000002 -54.913205 -11.625789 3.074109 122.842837 -8.632542 -1.016122 47.207389 -5.752052 -15.554875 31.804226 6.472337 10.771407 -0.000001 -0.000000 -0.000000 -56.886914 22.039745 -8.276769 123.627298 -0.765010 2.088502 43.436537 -10.280972 -17.765964 25.284674 -7.214179 -16.430344 -0.000001 0.000001 0.000000 
7.926032 30.842911 45.323986 21.486271 -20.430894 9.385198 19.430056 -0.473304 3.462066 3.761804 -0.339645 0.445210 3.760205 -0.332418 0.461506 6.259453 -0.577618 0.426475 34.907512 -11.713473 23.513638 0.000001 0.000000 -0.000001 0.114959 -11.165788 -16.651776 11.946490 -23.797381 -60.271727 0.000016 -80.129573 0.000033 40.504822 -29.284549 -5.539445 -0.418751 -2.468471 -5.679029 0.834649 3.015583 -30.935494 0.096295 1.058948 -10.391539 0.000000 0.000001 -0.000002 -2.341323 -7.419965 5.278460 5.851018 12.390037 2.275087 -10.374770 -8.260199 12.843007 -0.000001 -0.000002 -0.000000 0.094185 13.678431 15.157274 17.546457 17.558775 51.809929 0.000152 82.102180 -0.000153 51.478815 27.622704 5.689915 -1.644414 -1.774230 -21.626925 7.785328 -15.405801 -4.492638 -8.389249 2.112090 -14.768628 -0.000000 0.000001 -0.000001 0.053422 -4.133248 0.091822 0.359340 -1.795530 22.632412 0.662421 -2.395906 30.905397 0.000001 -0.000003 0.000001 -53.918299 -10.562931 1.736071 122.111529 -10.025920 -0.875514 46.515617 -5.637866 -15.562145 32.424506 4.216550 6.902752 0.000000 0.000001 0.000000 -55.676096 22.252808 -8.496942 122.304222 -1.691402 1.613232 43.591029 -12.294774 -17.020949 20.841079 -7.024060 -19.985871 -0.000001 -0.000003 -0.000001 
8.141273 31.268471 46.246315 21.785355 -21.590952 9.527777 19.224380 -1.313721 3.333494 3.659284 -0.560022 0.446045 3.657118 -0.553330 0.471263 5.721374 -0.384946 0.592226 31.830515 -10.890592 26.653288 0.000000 0.000000 0.000002 0.076937 -11.745686 -16.681038 13.078935 -22.925253 -60.477971 -0.000022 -79.209847 -0.000048 41.134104 -29.848835 -0.811077 -0.461827 -2.403295 -6.201364 0.834913 3.016015 -30.940422 0.095511 1.054670 -10.349080 -0.000000 -0.000000 0.000001 -2.341749 -7.420793 5.279572 5.851581 12.390888 2.275013 -10.374831 -8.260362 12.842950 0.000000 -0.000001 -0.000000 0.068728 13.625882 15.468905 16.650210 17.514934 52.600916 0.000092 80.831307 -0.000096 54.617259 29.938563 6.532469 -1.543141 -1.646511 -21.007951 7.784190 -15.405900 -4.493026 -8.389256 2.112072 -14.768631 -0.000003 0.000001 -0.000001 0.052994 -3.896700 0.110744 0.367799 -1.815677 22.900916 0.662390 -2.395897 30.905325 -0.000001 -0.000001 0.000002 -53.042863 -10.675729 0.967356 121.251786 -11.179536 -0.812788 45.534696 -5.872545 -16.484223 33.699006 2.975644 4.650616 -0.000000 0.000001 0.000000 -54.657414 22.764824 -8.531495 120.358998 -2.243160 1.197325 44.888249 -12.558933 -16.076064 18.269445 -6.561720 -21.762029 0.000001 0.000000 0.000000 
8.416879 31.785706 47.124428 22.151951 -23.097722 9.766930 19.115792 -1.930195 3.246220 3.584076 -0.718824 0.420750 3.581941 -0.711083 0.451493 5.233410 -0.272151 0.653936 29.291598 -10.559805 28.022446 -0.000000 0.000000 0.000000 0.057093 -12.244003 -16.537213 14.346292 -23.017761 -60.231094 -0.000032 -78.174916 -0.000050 41.680321 -30.014542 4.631797 -0.504036 -2.337539 -6.721780 0.835171 3.016441 -30.945296 0.094915 1.051441 -10.317101 -0.000001 0.000001 0.000003 -2.342101 -7.421129 5.280485 5.852177 12.391834 2.275169 -10.374810 -8.260505 12.842919 0.000001 -0.000001 -0.000002 0.063103 13.315546 15.717326 15.973536 17.890026 52.980736 0.000159 79.659943 -0.000178 57.735125 32.116250 6.775230 -1.435772 -1.492199 -20.363401 7.783226 -15.406040 -4.493371 -8.389264 2.112095 -14.768618 -0.000002 -0.000002 0.000001 0.052554 -3.652434 0.133656 0.376635 -1.836488 23.178735 0.662401 -2.395911 30.905264 0.000001 0.000001 0.000003 -52.150936 -10.563407 0.514913 120.364626 -11.137018 -0.779250 44.919460 -5.748133 -16.489975 34.645547 2.291131 3.458356 -0.000001 -0.000002 -0.000000 -53.791380 23.733874 -8.453952 118.575226 -2.873293 0.771377 45.596461 -12.290367 -15.417404 16.224834 -6.168880 -23.491742 0.000001 -0.000001 0.000000 
8.822714 32.371094 47.995152 22.469693 -24.769975 9.983689 19.204988 -2.715016 3.266591 3.537471 -0.932336 0.436710 3.535021 -0.924764 0.475771 4.826800 -0.132746 0.542868 27.138746 -10.490042 28.500491 0.000001 -0.000001 0.000002 0.033925 -12.567083 -16.579924 14.603303 -22.823072 -59.668997 -0.000069 -77.379534 -0.000093 41.831313 -30.444496 6.780734 -0.544911 -2.271925 -7.234274 0.835415 3.016866 -30.950155 0.094579 1.049470 -10.297576 0.000002 0.000002 0.000002 -2.342368 -7.420984 5.281122 5.852827 12.392836 2.275549 -10.374867 -8.260648 12.842867 -0.000000 0.000000 -0.000001 0.059835 13.128272 15.873658 15.419393 19.209504 52.758618 0.000021 78.005132 -0.000021 59.168440 32.746403 5.260718 -1.322574 -1.312741 -19.696275 7.782312 -15.406178 -4.493662 -8.389278 2.112082 -14.768621 -0.000001 0.000000 0.000001 0.052103 -3.401697 0.164400 0.385879 -1.857855 23.464794 0.662399 -2.395901 30.905192 0.000000 -0.000000 0.000001 -50.881761 -10.580181 0.653384 119.462946 -9.445819 -0.795945 44.749521 -5.415196 -15.865807 34.493975 2.984224 4.523240 -0.000000 -0.000000 0.000000 -52.953845 24.557009 -8.238290 116.643525 -3.594129 0.268987 46.123779 -12.159490 -15.381764 14.658061 -5.781450 -24.842761 -0.000001 0.000001 0.000001 
